<?xml version="1.0" encoding="UTF-8"?><svg id="b" xmlns="http://www.w3.org/2000/svg" viewBox="0 0 945.76 843.87"><defs><style>.d{fill:#7de29c;}.e{fill:#43d670;}.f{fill:#35e26e;}</style></defs><g id="c"><rect class="f" x="624.85" y="720.55" width="196.61" height="23.28"/><rect class="f" x="636.39" y="473.1" width="409.72" height="23.28" transform="translate(1326 -356.51) rotate(90)"/><path class="e" d="M625.01,216.04l-12.03-22.94L441.06,19.24c-12.03-9.8-23.98-15.39-39.76-16.57-113.36-8.49-237.23,6.54-351.69.07C16.93,8.6,2.22,29.96,0,61.92l.12,724.62c-.32,25.68,27.43,57.34,53.39,57.34h520.6c1.85,0,17.6-5.37,20.49-6.71,20.15-9.36,29.97-31.75,32.92-52.55-1.61-189.42,3.33-379.54-2.5-568.57ZM110.31,189.71c74.81,4.15,158.85-7.17,232.61-.44,6.11.56,19.53,3.21,24.26,6.82,13.34,10.17,5.85,36.48-12.58,35.88l-246.74-1.9c-21.2-2.48-23.96-35.93,2.45-40.37ZM362.84,473.32H101.6c-15.98-8.33-13.77-35.53,4.82-38.86l246.23-.46c21.53,2.13,30.39,27.58,10.19,39.32ZM459.56,354.42c-107.29-4.84-219.83,6.19-326.49.01-8.32-.48-26.84-1.94-33.34-5.51-12.88-7.08-11.25-27.3.72-35.03,11.07-7.15,13.97-2.26,24.83-2.18,113.97.88,228.09-.1,342.01-1,4.33.28,12.72,2.59,15.88,5.39,18.27,16.19-2.67,41.09-23.61,38.32Z"/><circle class="d" cx="841.25" cy="732.19" r="47.35"/><rect class="d" x="736.56" y="83.42" width="209.2" height="209.38" rx="25.54" ry="25.54"/></g></svg>