<?xml version="1.0" encoding="UTF-8"?><svg id="b" xmlns="http://www.w3.org/2000/svg" viewBox="0 0 125.39 125.39"><defs><style>.d{fill:#7de29c;}.e{fill:#43d670;}.f{fill:#1a1a1a;}.g{fill:#35e26e;}</style></defs><g id="c"><circle class="f" cx="62.69" cy="62.69" r="62.69"/><rect class="g" x="72.22" y="81.79" width="12.33" height="1.46"/><rect class="g" x="72.95" y="66.28" width="25.69" height="1.46" transform="translate(152.8 -18.78) rotate(90)"/><path class="e" d="M72.23,50.16l-.75-1.44-10.78-10.9c-.75-.61-1.5-.96-2.49-1.04-7.11-.53-14.87.41-22.05,0-2.05.37-2.97,1.71-3.11,3.71v45.43c-.01,1.61,1.73,3.59,3.35,3.59h32.64c.12,0,1.1-.34,1.28-.42,1.26-.59,1.88-1.99,2.06-3.29-.1-11.88.21-23.8-.16-35.65ZM39.96,48.51c4.69.26,9.96-.45,14.58-.03.38.03,1.22.2,1.52.43.84.64.37,2.29-.79,2.25l-15.47-.12c-1.33-.16-1.5-2.25.15-2.53ZM55.8,66.29h-16.38c-1-.52-.86-2.23.3-2.44l15.44-.03c1.35.13,1.91,1.73.64,2.47ZM61.86,58.84c-6.73-.3-13.78.39-20.47,0-.52-.03-1.68-.12-2.09-.35-.81-.44-.71-1.71.05-2.2.69-.45.88-.14,1.56-.14,7.15.06,14.3,0,21.44-.06.27.02.8.16,1,.34,1.15,1.01-.17,2.58-1.48,2.4Z"/><circle class="d" cx="85.79" cy="82.52" r="2.97"/><rect class="d" x="79.23" y="41.85" width="13.12" height="13.13" rx="6.56" ry="6.56"/></g></svg>